<?xml version="1.0" encoding="utf-8"?>
<!-- Generator: Adobe Illustrator 19.0.0, SVG Export Plug-In . SVG Version: 6.00 Build 0)  -->
<svg version="1.1" id="Layer_1" xmlns="http://www.w3.org/2000/svg" xmlns:xlink="http://www.w3.org/1999/xlink" x="0px" y="0px"
	 width="152px" height="40px" viewBox="0 0 152 40" style="enable-background:new 0 0 152 40;" xml:space="preserve">
<style type="text/css">
	.st0{fill-rule:evenodd;clip-rule:evenodd;fill:#FFFFFF;}
	.st1{fill-rule:evenodd;clip-rule:evenodd;fill:#00A2ED;}
	.st2{fill:none;stroke:#231F20;stroke-width:2.4933;stroke-miterlimit:22.9256;}
	.st3{fill:none;}
	.st4{fill:#00A2ED;}
</style>
<g id="XMLID_24_">
	<path id="XMLID_22_" class="st0" d="M8.7,1.1h133.8c4.3,0,7.9,3.6,7.9,7.9v21.7c0,4.3-3.5,7.9-7.9,7.9H8.7c-4.3,0-7.9-3.6-7.9-7.9
		V9C0.9,4.6,4.4,1.1,8.7,1.1L8.7,1.1z"/>
	<path id="XMLID_21_" class="st1" d="M8.7,1.1H18v37.5H8.7c-4.3,0-7.9-3.6-7.9-7.9V9C0.9,4.6,4.4,1.1,8.7,1.1L8.7,1.1z"/>
	<g id="XMLID_49_">
		<path id="XMLID_20_" class="st2" d="M9.1,1.3h133.8c4.3,0,7.9,3.6,7.9,7.9v21.7c0,4.3-3.5,7.9-7.9,7.9H9.1c-4.3,0-7.9-3.6-7.9-7.9
			V9.2C1.3,4.8,4.8,1.3,9.1,1.3L9.1,1.3z"/>
	</g>
	<path id="XMLID_19_" class="st3" d="M100.8,16.2c-0.1-0.1-0.2-0.2-0.3-0.3c-0.2-0.1-0.4-0.1-0.6-0.1c-0.3,0-0.5,0-0.6,0.1
		c-0.2,0.1-0.3,0.2-0.4,0.3c-0.1,0.1-0.1,0.3-0.1,0.5s0,0.4,0,0.7v2.1h2.3v-2.1c0-0.2,0-0.5,0-0.6C100.9,16.5,100.9,16.3,100.8,16.2
		z"/>
	<path id="XMLID_18_" class="st3" d="M69.2,16.4c-0.1-0.1-0.2-0.2-0.3-0.2c-0.1-0.1-0.3-0.1-0.4-0.1c-0.4,0-0.8,0.2-1,0.6
		c-0.2,0.4-0.3,1-0.3,1.8v6.6c0,0.5,0,0.9,0,1.3c0,0.4,0.1,0.7,0.2,1c0.1,0.3,0.2,0.5,0.4,0.6c0.2,0.1,0.4,0.2,0.7,0.2
		c0.3,0,0.6-0.1,0.7-0.3c0.2-0.2,0.3-0.5,0.3-0.9v-9.7c0-0.2,0-0.4-0.1-0.5C69.4,16.7,69.3,16.5,69.2,16.4z"/>
	<path id="XMLID_17_" class="st3" d="M54.3,16.2c-0.1-0.1-0.2-0.2-0.3-0.3c-0.2-0.1-0.4-0.1-0.6-0.1c-0.3,0-0.5,0-0.6,0.1
		c-0.2,0.1-0.3,0.2-0.4,0.3c-0.1,0.1-0.1,0.3-0.1,0.5c0,0.2,0,0.4,0,0.7v9.8c0,0.2,0,0.4,0,0.6c0,0.2,0.1,0.3,0.2,0.5
		c0.1,0.1,0.2,0.2,0.3,0.3c0.2,0.1,0.4,0.1,0.6,0.1c0.2,0,0.4,0,0.6-0.1c0.2-0.1,0.3-0.2,0.4-0.3c0.1-0.1,0.1-0.3,0.1-0.5
		c0-0.2,0.1-0.4,0.1-0.7v-9.8c0-0.2,0-0.5,0-0.6C54.5,16.5,54.4,16.3,54.3,16.2z"/>
	<path id="XMLID_16_" class="st3" d="M138,16.4c-0.1-0.1-0.2-0.2-0.3-0.2c-0.1-0.1-0.3-0.1-0.4-0.1c-0.4,0-0.8,0.2-1,0.6
		c-0.2,0.4-0.3,1-0.3,1.8v6.6c0,0.5,0,0.9,0,1.3c0,0.4,0.1,0.7,0.2,1c0.1,0.3,0.2,0.5,0.4,0.6c0.2,0.1,0.4,0.2,0.7,0.2
		c0.3,0,0.6-0.1,0.7-0.3c0.2-0.2,0.3-0.5,0.3-0.9v-9.7c0-0.2,0-0.4-0.1-0.5C138.2,16.7,138.1,16.5,138,16.4z"/>
	<path id="XMLID_42_" d="M73.6,13.5c-0.6-0.8-1.6-1.3-2.8-1.3c-0.5,0-0.9,0.1-1.3,0.1c-0.4,0.1-0.7,0.2-1,0.4
		c-0.3,0.2-0.6,0.4-0.8,0.7c-0.2,0.3-0.4,0.6-0.6,0.9h-0.1V7.8H62v24h5.1v-1.9h0.1c0.3,0.8,0.8,1.4,1.4,1.7c0.6,0.4,1.3,0.6,2.2,0.6
		c0.6,0,1.1-0.1,1.6-0.4c0.5-0.2,0.9-0.6,1.2-1.1c0.3-0.5,0.6-1.1,0.8-1.8c0.2-0.7,0.2-1.5,0.2-2.4v-9.4c0-0.8-0.1-1.5-0.3-2.1
		C74.2,14.4,74,13.9,73.6,13.5z M69.5,27c0,0.4-0.1,0.7-0.3,0.9c-0.2,0.2-0.4,0.3-0.7,0.3c-0.3,0-0.5-0.1-0.7-0.2
		c-0.2-0.1-0.3-0.3-0.4-0.6c-0.1-0.3-0.1-0.6-0.2-1c0-0.4,0-0.8,0-1.3v-6.6c0-0.8,0.1-1.4,0.3-1.8c0.2-0.4,0.5-0.6,1-0.6
		c0.1,0,0.3,0,0.4,0.1c0.1,0,0.2,0.1,0.3,0.2c0.1,0.1,0.2,0.2,0.2,0.4c0,0.1,0.1,0.3,0.1,0.5V27z"/>
	<path id="XMLID_13_" d="M42.3,12.5c-0.5-0.2-1-0.3-1.6-0.3c-1.1,0-1.9,0.2-2.4,0.6c-0.3,0.2-0.5,0.5-0.8,0.8
		c-0.3,0.3-0.6,0.8-0.9,1.3c-0.2-0.9-0.6-1.6-1.2-2.1c-0.6-0.5-1.4-0.7-2.4-0.7c-0.5,0-0.9,0.1-1.3,0.2c-0.4,0.1-0.7,0.3-1,0.5
		c-0.3,0.2-0.6,0.5-0.9,0.9c-0.3,0.3-0.5,0.8-0.8,1.2H29v-2.4h-5v19.2h5.1V18.9c0-1.4,0.4-2.1,1.3-2.1c0.8,0,1.3,0.7,1.3,2.1v12.9
		h5.1V18.9c0-1.4,0.4-2.1,1.3-2.1c0.8,0,1.3,0.7,1.3,2.1v12.9h5.1V16.3c0-1.2-0.3-2.2-1-3C43.2,13,42.8,12.7,42.3,12.5z"/>
	<rect id="XMLID_12_" x="77.4" y="12.6" width="5.1" height="19.2"/>
	<path id="XMLID_37_" d="M56.3,12.6c-0.8-0.3-1.8-0.4-2.9-0.4c-1.2,0-2.1,0.2-3,0.4c-0.8,0.3-1.5,0.7-1.9,1.2
		c-0.5,0.6-0.8,1.1-1.1,1.8c-0.2,0.6-0.3,1.3-0.3,2v9c0,0.7,0.1,1.4,0.4,2c0.2,0.6,0.6,1.2,1,1.8c0.5,0.6,1.1,1,2,1.2
		c0.8,0.3,1.8,0.4,2.9,0.4c1.2,0,2.1-0.2,3-0.4c0.8-0.3,1.4-0.7,1.9-1.2c0.5-0.6,0.8-1.2,1.1-1.8c0.2-0.6,0.4-1.3,0.4-2v-9
		c0-1.4-0.5-2.7-1.4-3.8C57.8,13.3,57.1,12.9,56.3,12.6z M54.5,27.1c0,0.3,0,0.5-0.1,0.7c0,0.2-0.1,0.3-0.1,0.5
		c-0.1,0.2-0.2,0.3-0.4,0.3c-0.2,0.1-0.4,0.1-0.6,0.1c-0.3,0-0.5-0.1-0.6-0.1c-0.2-0.1-0.3-0.2-0.3-0.3c-0.1-0.2-0.1-0.3-0.2-0.5
		c0-0.2,0-0.4,0-0.6v-9.8c0-0.3,0-0.5,0-0.7c0-0.2,0.1-0.3,0.1-0.5c0.1-0.1,0.2-0.3,0.4-0.3c0.2-0.1,0.4-0.1,0.6-0.1
		c0.3,0,0.5,0.1,0.6,0.1c0.2,0.1,0.3,0.2,0.3,0.3c0.1,0.2,0.1,0.3,0.2,0.5c0,0.2,0,0.4,0,0.6V27.1z"/>
	<path id="XMLID_34_" d="M102.8,12.6c-0.8-0.3-1.8-0.4-2.9-0.4c-1.2,0-2.1,0.2-3,0.4c-0.8,0.3-1.5,0.7-1.9,1.2
		c-0.5,0.6-0.8,1.1-1.1,1.8c-0.2,0.6-0.3,1.3-0.3,2v9c0,0.7,0.1,1.4,0.4,2c0.2,0.6,0.6,1.2,1,1.8c0.5,0.6,1.1,1,2,1.2
		c0.8,0.3,1.8,0.4,2.9,0.4c1.2,0,2.1-0.2,3-0.4c0.8-0.3,1.4-0.7,1.9-1.2c0.5-0.6,0.8-1.2,1.1-1.8c0.2-0.6,0.4-1.3,0.4-2v-2H101v2.4
		c0,0.3,0,0.5-0.1,0.7c0,0.2-0.1,0.3-0.1,0.5c-0.1,0.2-0.2,0.3-0.4,0.3c-0.2,0.1-0.4,0.1-0.6,0.1c-0.3,0-0.5-0.1-0.6-0.1
		c-0.2-0.1-0.3-0.2-0.3-0.3c-0.1-0.2-0.1-0.3-0.2-0.5c0-0.2,0-0.4,0-0.6V23h7.5v-5.3c0-1.4-0.5-2.7-1.4-3.8
		C104.2,13.3,103.6,12.9,102.8,12.6z M101,19.4h-2.3v-2.1c0-0.3,0-0.5,0-0.7s0.1-0.3,0.1-0.5c0.1-0.1,0.2-0.3,0.4-0.3
		c0.2-0.1,0.4-0.1,0.6-0.1c0.3,0,0.5,0.1,0.6,0.1c0.2,0.1,0.3,0.2,0.3,0.3c0.1,0.2,0.1,0.3,0.2,0.5c0,0.2,0,0.4,0,0.6V19.4z"/>
	<path id="XMLID_31_" d="M138.5,12.6v2.1h-0.1c-0.2-0.4-0.4-0.8-0.7-1.1c-0.2-0.3-0.5-0.6-0.7-0.8c-0.3-0.2-0.6-0.4-0.9-0.5
		c-0.3-0.1-0.7-0.2-1.2-0.2c-0.8,0-1.5,0.2-2,0.4c-0.5,0.3-0.9,0.7-1.2,1.2c-0.3,0.6-0.5,1.2-0.6,1.9c-0.1,0.7-0.2,1.5-0.2,2.4v7.1
		c0,0.7,0.1,1.3,0.3,1.9c0.2,0.6,0.5,1,0.8,1.5c0.4,0.4,0.8,0.7,1.3,0.9c0.5,0.2,1,0.3,1.5,0.3c0.9,0,1.7-0.2,2.2-0.6
		c0.6-0.4,1-0.9,1.3-1.7l0.1,0.1v3.4c0,0.5-0.1,0.8-0.3,1c-0.2,0.2-0.5,0.3-0.8,0.3c-0.2,0-0.4,0-0.5-0.1c-0.1,0-0.2-0.1-0.3-0.2
		c-0.1-0.1-0.2-0.2-0.2-0.4c0-0.2-0.1-0.4-0.1-0.6h-5c0.1,1.4,0.7,2.4,1.7,3.1c1,0.7,2.5,1,4.3,1c2.2,0,3.8-0.4,4.7-1.3
		c0.5-0.4,0.9-1,1.1-1.8c0.2-0.7,0.4-1.6,0.4-2.7V12.6H138.5z M138.3,23.5c0,0.9-0.1,1.6-0.3,2c-0.2,0.5-0.5,0.7-0.9,0.7
		c-0.4,0-0.6-0.1-0.8-0.4c-0.2-0.2-0.3-0.6-0.3-1v-7.3c0-0.5,0.1-0.8,0.3-1.1c0.2-0.2,0.4-0.3,0.8-0.3c0.4,0,0.8,0.2,1,0.6
		c0.2,0.4,0.3,1,0.3,1.8V23.5z"/>
	<path id="XMLID_28_" d="M127.6,13.5c-0.6-0.8-1.6-1.3-2.8-1.3c-0.5,0-0.9,0.1-1.3,0.1c-0.4,0.1-0.7,0.2-1,0.4
		c-0.3,0.2-0.6,0.4-0.8,0.7c-0.2,0.3-0.4,0.6-0.6,0.9h-0.1V7.8h-5.1v24h5.1v-1.9h0.1c0.3,0.8,0.8,1.4,1.4,1.7
		c0.6,0.4,1.3,0.6,2.2,0.6c0.6,0,1.1-0.1,1.6-0.4c0.5-0.2,0.9-0.6,1.2-1.1c0.3-0.5,0.6-1.1,0.8-1.8c0.2-0.7,0.2-1.5,0.2-2.4v-9.4
		c0-0.8-0.1-1.5-0.3-2.1C128.1,14.4,127.9,13.9,127.6,13.5z M123.4,27c0,0.4-0.1,0.7-0.3,0.9c-0.2,0.2-0.4,0.3-0.7,0.3
		c-0.3,0-0.5-0.1-0.7-0.2c-0.2-0.1-0.3-0.3-0.4-0.6c-0.1-0.3-0.1-0.6-0.2-1c0-0.4,0-0.8,0-1.3v-6.6c0-0.8,0.1-1.4,0.3-1.8
		c0.2-0.4,0.5-0.6,1-0.6c0.1,0,0.3,0,0.4,0.1c0.1,0,0.2,0.1,0.3,0.2c0.1,0.1,0.2,0.2,0.2,0.4c0,0.1,0.1,0.3,0.1,0.5V27z"/>
	<rect id="XMLID_3_" x="108.6" y="26.3" class="st4" width="5" height="5.5"/>
	<rect id="XMLID_2_" x="77.4" y="7.8" width="5.1" height="3.5"/>
	<rect id="XMLID_1_" x="85.7" y="7.8" width="5.1" height="24"/>
</g>
</svg>
